<svg width="1461" height="305" viewBox="0 0 1461 305" fill="none" xmlns="http://www.w3.org/2000/svg">
<path d="M40.9375 295.097H7.71597C5.00109 295.097 3.00066 294.041 1.71466 291.929C0.571554 289.552 0 285.855 0 280.838V24.1624C0 19.145 0.571554 15.5801 1.71466 13.4675C3.00066 11.0909 5.00109 9.90261 7.71597 9.90261H103.308C106.023 9.90261 107.952 11.0909 109.095 13.4675C110.381 15.5801 111.024 19.145 111.024 24.1624V71.2987C111.024 76.316 110.381 80.013 109.095 82.3896C107.952 84.5022 106.023 85.5584 103.308 85.5584H48.6535V126.753H85.9474C88.6623 126.753 90.5913 127.942 91.7344 130.318C93.0204 132.431 93.6634 135.996 93.6634 141.013V188.545C93.6634 193.563 93.0204 197.26 91.7344 199.636C90.5913 201.749 88.6623 202.805 85.9474 202.805H48.6535V280.838C48.6535 285.855 48.0105 289.552 46.7245 291.929C45.5814 294.041 43.6524 295.097 40.9375 295.097ZM23.3623 259.448H25.5056V166.76H74.3734V162.799H25.5056V49.513H91.7344V45.5519H23.3623V259.448Z" fill="#CE4410"/>
<path d="M204.509 49.513C212.082 49.513 217.654 53.342 221.226 61C224.942 68.658 226.799 78.5606 226.799 90.7078V118.435C226.799 132.959 225.299 144.182 222.298 152.104C219.297 160.026 213.368 163.987 204.509 163.987H157.784V49.513H204.509ZM180.932 81.2013V131.903H197.007C200.722 131.903 203.223 130.186 204.509 126.753C205.795 123.056 206.437 118.567 206.437 113.286V99.8182C206.437 94.5368 205.795 90.1797 204.509 86.7468C203.223 83.0498 200.722 81.2013 197.007 81.2013H180.932ZM157.784 259.448V167.552H218.44C226.585 167.552 232.586 170.853 236.444 177.455C240.302 183.792 242.231 193.431 242.231 206.37V259.448H244.374V206.37C244.374 192.639 242.231 182.208 237.944 175.078C233.658 167.684 227.156 163.987 218.44 163.987H216.082C221.226 161.082 224.656 155.801 226.37 148.143C228.085 140.221 228.942 130.186 228.942 118.039V90.7078C228.942 77.7684 226.942 67.0736 222.941 58.6234C218.94 49.9091 212.796 45.5519 204.509 45.5519H155.641V259.448H157.784ZM173.216 295.097H140.209C137.494 295.097 135.493 294.041 134.207 291.929C133.064 289.552 132.493 285.855 132.493 280.838V24.1624C132.493 19.145 133.064 15.5801 134.207 13.4675C135.493 11.0909 137.494 9.90261 140.209 9.90261H211.581C227.585 9.90261 238.587 16.1082 244.589 28.5195C250.733 40.6667 253.805 56.5108 253.805 76.052V94.2727C253.805 105.364 252.876 114.87 251.019 122.792C249.304 130.45 246.232 135.996 241.802 139.429C249.518 141.013 255.734 146.823 260.449 156.857C265.308 166.892 267.737 180.227 267.737 196.864V280.838C267.737 285.855 267.094 289.552 265.808 291.929C264.665 294.041 262.736 295.097 260.021 295.097H226.799C224.084 295.097 222.084 294.041 220.798 291.929C219.655 289.552 219.083 285.855 219.083 280.838V220.234C219.083 214.424 218.44 210.199 217.154 207.558C216.011 204.654 213.939 203.201 210.938 203.201H180.932V280.838C180.932 285.855 180.289 289.552 179.003 291.929C177.86 294.041 175.931 295.097 173.216 295.097Z" fill="#CE4410"/>
<path d="M296.064 295.097C293.349 295.097 291.348 294.041 290.062 291.929C288.919 289.552 288.348 285.855 288.348 280.838V233.701C288.348 228.684 288.919 225.119 290.062 223.006C291.348 220.63 293.349 219.442 296.064 219.442H317.283V86.3507H296.064C293.349 86.3507 291.348 85.2944 290.062 83.1818C288.919 80.8052 288.348 77.1082 288.348 72.0909V24.1624C288.348 19.145 288.919 15.5801 290.062 13.4675C291.348 11.0909 293.349 9.90261 296.064 9.90261H387.369C390.084 9.90261 392.013 11.0909 393.156 13.4675C394.442 15.5801 395.085 19.145 395.085 24.1624V72.0909C395.085 77.1082 394.442 80.8052 393.156 83.1818C392.013 85.2944 390.084 86.3507 387.369 86.3507H366.579V219.442H387.369C390.084 219.442 392.013 220.63 393.156 223.006C394.442 225.119 395.085 228.684 395.085 233.701V280.838C395.085 285.855 394.442 289.552 393.156 291.929C392.013 294.041 390.084 295.097 387.369 295.097H296.064ZM375.795 259.448V255.487H343.003V49.513H375.795V45.5519H307.638V49.513H340.859V255.487H307.638V259.448H375.795Z" fill="#CE4410"/>
<path d="M528.715 295.097H429.265C426.55 295.097 424.549 294.041 423.263 291.929C422.12 289.552 421.549 285.855 421.549 280.838V24.1624C421.549 19.145 422.12 15.5801 423.263 13.4675C424.549 11.0909 426.55 9.90261 429.265 9.90261H528.715C531.43 9.90261 533.359 11.0909 534.502 13.4675C535.788 15.5801 536.431 19.145 536.431 24.1624V70.5065C536.431 75.5238 535.788 79.2208 534.502 81.5974C533.359 83.71 531.43 84.7662 528.715 84.7662H469.559V115.266H511.354C514.069 115.266 515.998 116.455 517.141 118.831C518.427 120.944 519.07 124.509 519.07 129.526V171.909C519.07 176.926 518.427 180.623 517.141 183C515.998 185.113 514.069 186.169 511.354 186.169H469.559V220.234H528.715C531.43 220.234 533.359 221.422 534.502 223.799C535.788 225.911 536.431 229.476 536.431 234.494V280.838C536.431 285.855 535.788 289.552 534.502 291.929C533.359 294.041 531.43 295.097 528.715 295.097ZM517.141 255.487H447.054V152.896H499.78V148.935H447.054V49.513H517.141V45.5519H444.911V259.448H517.141V255.487Z" fill="#CE4410"/>
<path d="M590.078 48.7208C589.363 47.4004 588.792 46.4762 588.363 45.9481C587.935 45.4199 587.434 45.1558 586.863 45.1558C586.291 45.1558 585.72 45.552 585.148 46.3442C584.577 47.1364 584.291 48.3247 584.291 49.9091V259.448H586.434V50.7013C586.434 50.4372 586.434 50.1732 586.434 49.9091C586.577 49.645 586.72 49.513 586.863 49.513C587.006 49.513 587.149 49.645 587.292 49.9091C587.577 50.1732 587.792 50.4372 587.935 50.7013L668.952 218.649V259.448H671.096V45.5519H668.952V212.708L590.078 48.7208ZM601.652 295.097H569.502C566.787 295.097 564.787 294.041 563.501 291.929C562.357 289.552 561.786 285.855 561.786 280.838V24.1624C561.786 19.145 562.357 15.5801 563.501 13.4675C564.787 11.0909 566.787 9.90261 569.502 9.90261H591.792C594.507 9.90261 596.794 10.6948 598.651 12.2792C600.652 13.8637 602.581 16.6364 604.438 20.5974L646.019 108.532V24.1624C646.019 19.145 646.59 15.5801 647.733 13.4675C649.019 11.0909 651.02 9.90261 653.735 9.90261H685.885C688.599 9.90261 690.528 11.0909 691.672 13.4675C692.958 15.5801 693.601 19.145 693.601 24.1624V280.838C693.601 285.855 692.958 289.552 691.672 291.929C690.528 294.041 688.599 295.097 685.885 295.097H653.735C651.02 295.097 649.019 294.041 647.733 291.929C646.59 289.552 646.019 285.855 646.019 280.838V232.117L609.368 150.123V280.838C609.368 285.855 608.725 289.552 607.439 291.929C606.296 294.041 604.367 295.097 601.652 295.097Z" fill="#CE4410"/>
<path d="M803.109 295.097H730.879C728.164 295.097 726.164 294.041 724.878 291.929C723.735 289.552 723.163 285.855 723.163 280.838V24.1624C723.163 19.145 723.735 15.5801 724.878 13.4675C726.164 11.0909 728.164 9.90261 730.879 9.90261H803.109C820.97 9.90261 834.188 16.5043 842.761 29.7078C851.477 42.9113 855.835 63.2446 855.835 90.7078V214.292C855.835 241.755 851.477 262.089 842.761 275.292C834.188 288.496 820.97 295.097 803.109 295.097ZM746.526 259.448H798.394C805.681 259.448 811.611 258.128 816.184 255.487C820.756 252.582 824.257 248.753 826.686 244C829.115 239.247 830.687 233.569 831.401 226.968C832.259 220.366 832.687 213.236 832.687 205.578V100.61C832.687 92.9524 832.259 85.8225 831.401 79.2208C830.544 72.355 828.901 66.5455 826.472 61.7922C824.043 56.7749 820.542 52.8139 815.969 49.9091C811.54 47.0043 805.681 45.5519 798.394 45.5519H746.526V259.448ZM798.394 49.513C805.11 49.513 810.54 50.8334 814.683 53.474C818.97 56.1147 822.256 59.6797 824.543 64.1688C826.829 68.658 828.401 74.0714 829.258 80.4091C830.115 86.7468 830.544 93.4805 830.544 100.61V205.578C830.544 212.708 830.115 219.442 829.258 225.779C828.544 231.853 827.043 237.134 824.757 241.623C822.471 245.848 819.184 249.281 814.898 251.922C810.754 254.299 805.253 255.487 798.394 255.487H748.669V49.513H798.394ZM771.817 85.5584V220.234H797.322C800.752 220.234 803.252 218.649 804.824 215.481C806.539 212.312 807.396 207.426 807.396 200.825V104.571C807.396 97.9697 806.539 93.2165 804.824 90.3117C803.252 87.1429 800.752 85.5584 797.322 85.5584H771.817Z" fill="#CE4410"/>
<path d="M885.862 299.058C882.433 299.058 879.932 297.606 878.36 294.701C876.789 291.797 876.003 287.175 876.003 280.838V227.76C876.003 221.95 876.431 217.065 877.289 213.104C878.289 208.879 879.789 204.786 881.79 200.825L931.086 90.3117H889.72C886.291 90.3117 883.79 88.8593 882.218 85.9546C880.646 83.0498 879.861 78.4286 879.861 72.0909V24.1624C879.861 17.8247 880.646 13.2035 882.218 10.2987C883.79 7.39395 886.291 5.94158 889.72 5.94158H988.313C991.742 5.94158 994.243 7.39395 995.815 10.2987C997.386 13.2035 998.172 17.8247 998.172 24.1624V83.1818C998.172 88.9914 997.672 94.0087 996.672 98.2338C995.815 102.459 994.386 106.552 992.385 110.513L945.446 215.481H992.171C995.6 215.481 998.101 216.933 999.672 219.838C1001.24 222.742 1002.03 227.364 1002.03 233.701V280.838C1002.03 287.175 1001.24 291.797 999.672 294.701C998.101 297.606 995.6 299.058 992.171 299.058H885.862ZM992.171 295.097C994.886 295.097 996.815 294.041 997.958 291.929C999.244 289.552 999.887 285.855 999.887 280.838V233.701C999.887 228.684 999.244 225.119 997.958 223.006C996.815 220.63 994.886 219.442 992.171 219.442H940.945L990.671 108.136C992.528 104.439 993.886 100.742 994.743 97.0455C995.6 93.0844 996.029 88.4632 996.029 83.1818V24.1624C996.029 19.145 995.386 15.5801 994.1 13.4675C992.957 11.0909 991.028 9.90261 988.313 9.90261H889.72C887.005 9.90261 885.005 11.0909 883.719 13.4675C882.575 15.5801 882.004 19.145 882.004 24.1624V72.0909C882.004 77.1082 882.575 80.8052 883.719 83.1818C885.005 85.2944 887.005 86.3507 889.72 86.3507H935.587L883.504 203.201C881.647 206.898 880.289 210.727 879.432 214.688C878.575 218.385 878.146 222.742 878.146 227.76V280.838C878.146 285.855 878.717 289.552 879.861 291.929C881.147 294.041 883.147 295.097 885.862 295.097H992.171ZM969.666 79.6169L906.867 228.552C905.866 230.929 905.08 232.909 904.509 234.494C904.08 236.078 903.866 238.19 903.866 240.831V246.377C903.866 250.074 904.295 252.582 905.152 253.903C906.152 254.959 907.224 255.487 908.367 255.487H980.597V259.448H908.367C906.081 259.448 904.366 258.392 903.223 256.279C902.223 254.167 901.722 250.866 901.722 246.377V240.039C901.722 237.134 902.08 234.626 902.794 232.513C903.509 230.136 904.366 227.76 905.366 225.383L968.166 76.448C969.166 74.0714 969.88 72.0909 970.309 70.5065C970.881 68.9221 971.166 66.8095 971.166 64.1688V58.6234C971.166 54.9264 970.666 52.5498 969.666 51.4935C968.809 50.1732 967.808 49.513 966.665 49.513H901.294V45.5519H966.665C968.952 45.5519 970.595 46.6082 971.595 48.7208C972.738 50.8333 973.31 54.1342 973.31 58.6234V64.961C973.31 67.8658 972.952 70.5065 972.238 72.8831C971.524 74.9957 970.666 77.2403 969.666 79.6169Z" fill="#CE4410"/>
<path d="M1157.45 85.1623V220.234C1157.45 232.645 1156.53 244.132 1154.67 254.695C1152.81 264.994 1149.31 273.84 1144.17 281.234C1139.17 288.628 1132.16 294.437 1123.16 298.662C1114.3 302.887 1102.87 305 1088.87 305C1074.87 305 1063.36 302.887 1054.36 298.662C1045.5 294.437 1038.5 288.628 1033.36 281.234C1028.36 273.84 1024.85 264.994 1022.85 254.695C1021 244.132 1020.07 232.645 1020.07 220.234V85.1623C1020.07 72.7511 1021 61.3961 1022.85 51.0974C1024.85 40.5346 1028.36 31.5563 1033.36 24.1624C1038.5 16.5043 1045.5 10.5628 1054.36 6.33767C1063.36 2.11256 1074.87 0 1088.87 0C1102.87 0 1114.3 2.11256 1123.16 6.33767C1132.16 10.5628 1139.17 16.5043 1144.17 24.1624C1149.31 31.5563 1152.81 40.5346 1154.67 51.0974C1156.53 61.3961 1157.45 72.7511 1157.45 85.1623ZM1155.31 220.234V85.1623C1155.31 73.0152 1154.31 62.0563 1152.31 52.2857C1150.45 42.2511 1147.02 33.6688 1142.02 26.539C1137.16 19.4091 1130.38 13.8636 1121.66 9.90261C1113.09 5.94158 1102.16 3.96106 1088.87 3.96106C1075.58 3.96106 1064.58 5.94158 1055.86 9.90261C1047.14 13.8636 1040.29 19.4091 1035.29 26.539C1030.43 33.6688 1027 42.2511 1025 52.2857C1023.14 62.0563 1022.21 73.0152 1022.21 85.1623V220.234C1022.21 232.381 1023.14 243.472 1025 253.506C1027 263.277 1030.43 271.727 1035.29 278.857C1040.29 285.723 1047.14 291.136 1055.86 295.097C1064.58 299.058 1075.58 301.039 1088.87 301.039C1102.16 301.039 1113.09 299.058 1121.66 295.097C1130.38 291.136 1137.16 285.723 1142.02 278.857C1147.02 271.727 1150.45 263.277 1152.31 253.506C1154.31 243.472 1155.31 232.381 1155.31 220.234ZM1131.95 211.123C1131.95 226.968 1128.88 239.907 1122.73 249.942C1116.59 259.712 1105.16 264.597 1088.44 264.597C1071.72 264.597 1060.36 259.712 1054.36 249.942C1048.36 239.907 1045.36 226.968 1045.36 211.123V94.2727C1045.36 78.4286 1048.36 65.6212 1054.36 55.8507C1060.36 45.816 1071.72 40.7987 1088.44 40.7987C1105.16 40.7987 1116.59 45.816 1122.73 55.8507C1128.88 65.6212 1131.95 78.4286 1131.95 94.2727V211.123ZM1047.5 211.123C1047.5 225.911 1050.36 237.926 1056.08 247.169C1061.79 256.147 1072.58 260.636 1088.44 260.636C1104.3 260.636 1115.16 256.147 1121.02 247.169C1126.88 237.926 1129.81 225.911 1129.81 211.123V94.2727C1129.81 79.4849 1126.88 67.6017 1121.02 58.6234C1115.16 49.381 1104.3 44.7598 1088.44 44.7598C1072.58 44.7598 1061.79 49.381 1056.08 58.6234C1050.36 67.6017 1047.5 79.4849 1047.5 94.2727V211.123ZM1070.86 205.974V99.4221C1070.86 94.4048 1071.94 90.1797 1074.08 86.7468C1076.22 83.0498 1081.15 81.2013 1088.87 81.2013C1096.58 81.2013 1101.51 83.0498 1103.66 86.7468C1105.8 90.1797 1106.87 94.4048 1106.87 99.4221V205.974C1106.87 211.255 1105.8 215.745 1103.66 219.442C1101.51 222.874 1096.58 224.591 1088.87 224.591C1081.15 224.591 1076.22 222.874 1074.08 219.442C1071.94 215.745 1070.86 211.255 1070.86 205.974ZM1073.01 99.4221V205.974C1073.01 210.727 1074.08 214.424 1076.22 217.065C1078.51 219.442 1082.72 220.63 1088.87 220.63C1095.01 220.63 1099.16 219.442 1101.3 217.065C1103.59 214.424 1104.73 210.727 1104.73 205.974V99.4221C1104.73 94.9329 1103.59 91.5 1101.3 89.1234C1099.16 86.4827 1095.01 85.1623 1088.87 85.1623C1082.87 85.1623 1078.72 86.4827 1076.44 89.1234C1074.15 91.5 1073.01 94.9329 1073.01 99.4221Z" fill="#CE4410"/>
<path d="M1210.89 48.7208L1289.76 212.708V45.5519H1291.91V259.448H1289.76V218.649L1208.75 50.7013C1208.6 50.4372 1208.39 50.1732 1208.1 49.9091C1207.96 49.645 1207.82 49.513 1207.67 49.513C1207.53 49.513 1207.39 49.645 1207.25 49.9091C1207.25 50.1732 1207.25 50.4372 1207.25 50.7013V259.448H1205.1V49.9091C1205.1 48.3247 1205.39 47.1364 1205.96 46.3442C1206.53 45.552 1207.1 45.1558 1207.67 45.1558C1208.25 45.1558 1208.75 45.4199 1209.17 45.9481C1209.6 46.4762 1210.17 47.4004 1210.89 48.7208ZM1222.46 295.097C1225.18 295.097 1227.11 294.041 1228.25 291.929C1229.54 289.552 1230.18 285.855 1230.18 280.838V150.123L1266.83 232.117V280.838C1266.83 285.855 1267.4 289.552 1268.54 291.929C1269.83 294.041 1271.83 295.097 1274.55 295.097H1306.7C1309.41 295.097 1311.34 294.041 1312.48 291.929C1313.77 289.552 1314.41 285.855 1314.41 280.838V24.1624C1314.41 19.145 1313.77 15.5801 1312.48 13.4675C1311.34 11.0909 1309.41 9.90261 1306.7 9.90261H1274.55C1271.83 9.90261 1269.83 11.0909 1268.54 13.4675C1267.4 15.5801 1266.83 19.145 1266.83 24.1624V108.532L1225.25 20.5974C1223.39 16.6364 1221.46 13.8637 1219.46 12.2792C1217.6 10.6948 1215.32 9.90261 1212.6 9.90261H1190.31C1187.6 9.90261 1185.6 11.0909 1184.31 13.4675C1183.17 15.5801 1182.6 19.145 1182.6 24.1624V280.838C1182.6 285.855 1183.17 289.552 1184.31 291.929C1185.6 294.041 1187.6 295.097 1190.31 295.097H1222.46ZM1222.46 299.058H1190.31C1186.88 299.058 1184.38 297.606 1182.81 294.701C1181.24 291.797 1180.45 287.175 1180.45 280.838V24.1624C1180.45 17.8247 1181.24 13.2035 1182.81 10.2987C1184.38 7.39395 1186.88 5.94158 1190.31 5.94158H1212.6C1215.75 5.94158 1218.39 6.86581 1220.53 8.71429C1222.68 10.5628 1224.82 13.5996 1226.96 17.8247L1264.69 97.4416V24.1624C1264.69 17.8247 1265.47 13.2035 1267.04 10.2987C1268.62 7.39395 1271.12 5.94158 1274.55 5.94158H1306.7C1310.13 5.94158 1312.63 7.39395 1314.2 10.2987C1315.77 13.2035 1316.55 17.8247 1316.55 24.1624V280.838C1316.55 287.175 1315.77 291.797 1314.2 294.701C1312.63 297.606 1310.13 299.058 1306.7 299.058H1274.55C1271.12 299.058 1268.62 297.606 1267.04 294.701C1265.47 291.797 1264.69 287.175 1264.69 280.838V233.701L1232.32 161.214V280.838C1232.32 287.175 1231.54 291.797 1229.96 294.701C1228.39 297.606 1225.89 299.058 1222.46 299.058Z" fill="#CE4410"/>
<path d="M1351.69 299.058C1348.26 299.058 1345.76 297.606 1344.19 294.701C1342.62 291.797 1341.83 287.175 1341.83 280.838V24.1624C1341.83 17.8247 1342.62 13.2035 1344.19 10.2987C1345.76 7.39395 1348.26 5.94158 1351.69 5.94158H1451.14C1454.57 5.94158 1457.07 7.39395 1458.64 10.2987C1460.21 13.2035 1461 17.8247 1461 24.1624V70.5065C1461 76.8442 1460.21 81.4654 1458.64 84.3701C1457.07 87.2749 1454.57 88.7273 1451.14 88.7273H1394.13V111.305H1433.78C1437.21 111.305 1439.71 112.758 1441.28 115.662C1442.85 118.567 1443.64 123.188 1443.64 129.526V171.909C1443.64 178.247 1442.85 182.868 1441.28 185.773C1439.71 188.677 1437.21 190.13 1433.78 190.13H1394.13V216.273H1451.14C1454.57 216.273 1457.07 217.725 1458.64 220.63C1460.21 223.535 1461 228.156 1461 234.494V280.838C1461 287.175 1460.21 291.797 1458.64 294.701C1457.07 297.606 1454.57 299.058 1451.14 299.058H1351.69ZM1451.14 295.097C1453.86 295.097 1455.78 294.041 1456.93 291.929C1458.21 289.552 1458.86 285.855 1458.86 280.838V234.494C1458.86 229.476 1458.21 225.911 1456.93 223.799C1455.78 221.422 1453.86 220.234 1451.14 220.234H1391.99V186.169H1433.78C1436.49 186.169 1438.42 185.113 1439.57 183C1440.85 180.623 1441.5 176.926 1441.5 171.909V129.526C1441.5 124.509 1440.85 120.944 1439.57 118.831C1438.42 116.455 1436.49 115.266 1433.78 115.266H1391.99V84.7662H1451.14C1453.86 84.7662 1455.78 83.71 1456.93 81.5974C1458.21 79.2208 1458.86 75.5238 1458.86 70.5065V24.1624C1458.86 19.145 1458.21 15.5801 1456.93 13.4675C1455.78 11.0909 1453.86 9.90261 1451.14 9.90261H1351.69C1348.98 9.90261 1346.98 11.0909 1345.69 13.4675C1344.55 15.5801 1343.97 19.145 1343.97 24.1624V280.838C1343.97 285.855 1344.55 289.552 1345.69 291.929C1346.98 294.041 1348.98 295.097 1351.69 295.097H1451.14ZM1439.57 255.487V259.448H1367.34V45.5519H1439.57V49.513H1369.48V148.935H1422.21V152.896H1369.48V255.487H1439.57Z" fill="#CE4410"/>
</svg>
